<svg width="16" height="16" viewBox="0 0 16 16" fill="none" xmlns="http://www.w3.org/2000/svg">
<g clip-path="url(#clip0_1059_30069)">
<path d="M12.987 8.2331C11.9403 5.5131 8.21366 5.36643 9.11366 1.4131C9.18033 1.11977 8.86699 0.893101 8.61366 1.04643C6.19366 2.4731 4.45366 5.3331 5.91366 9.07977C6.03366 9.38643 5.67366 9.6731 5.41366 9.4731C4.20699 8.55977 4.08033 7.24643 4.18699 6.30643C4.22699 5.95977 3.77366 5.7931 3.58033 6.07977C3.12699 6.7731 2.66699 7.8931 2.66699 9.57977C2.92033 13.3131 6.07366 14.4598 7.20699 14.6064C8.82699 14.8131 10.5803 14.5131 11.8403 13.3598C13.227 12.0731 13.7337 10.0198 12.987 8.2331ZM6.80033 11.5864C7.76033 11.3531 8.25366 10.6598 8.38699 10.0464C8.60699 9.0931 7.74699 8.15977 8.32699 6.6531C8.54699 7.89977 10.507 8.67977 10.507 10.0398C10.5603 11.7264 8.73366 13.1731 6.80033 11.5864Z" fill="#D4D4D4"/>
</g>
<defs>
<clipPath id="clip0_1059_30069">
<rect width="16" height="16" fill="white"/>
</clipPath>
</defs>
</svg>
