<svg width="12" height="12" viewBox="0 0 12 12" fill="none" xmlns="http://www.w3.org/2000/svg">
<g clip-path="url(#clip0_909_81207)">
<path d="M9.74 6.17501C8.955 4.13501 6.16 4.02501 6.835 1.06001C6.885 0.840009 6.65 0.670009 6.46 0.785009C4.645 1.85501 3.34 4.00001 4.435 6.81001C4.525 7.04001 4.255 7.25501 4.06 7.10501C3.155 6.42001 3.06 5.43501 3.14 4.73001C3.17 4.47001 2.83 4.34501 2.685 4.56001C2.345 5.08001 2 5.92001 2 7.18501C2.19 9.98501 4.555 10.845 5.405 10.955C6.62 11.11 7.935 10.885 8.88 10.02C9.92 9.05501 10.3 7.51501 9.74 6.17501ZM5.1 8.69001C5.82 8.51501 6.19 7.99501 6.29 7.53501C6.455 6.82001 5.81 6.12001 6.245 4.99001C6.41 5.92501 7.88 6.51001 7.88 7.53001C7.92 8.79501 6.55 9.88001 5.1 8.69001Z" fill="#FF7C71"/>
</g>
<defs>
<clipPath id="clip0_909_81207">
<rect width="12" height="12" fill="white"/>
</clipPath>
</defs>
</svg>
