<svg width="116" height="23" viewBox="0 0 116 23" fill="none" xmlns="http://www.w3.org/2000/svg">
<path d="M9.36663 1.872C10.2626 1.872 11.0866 1.984 11.8386 2.208C12.6066 2.416 13.3826 2.752 14.1666 3.216L14.7186 2.76C15.1026 2.456 15.4146 2.248 15.6546 2.136C15.9106 2.024 16.1986 1.968 16.5186 1.968C16.9026 1.968 17.2066 2.056 17.4306 2.232C17.6546 2.392 17.7666 2.632 17.7666 2.952C17.7666 3.08 17.7426 3.216 17.6946 3.36L16.6866 6.672C16.5746 7.056 16.4306 7.328 16.2546 7.488C16.0946 7.648 15.8466 7.728 15.5106 7.728C15.1586 7.728 14.8466 7.624 14.5746 7.416C14.3186 7.192 13.9106 6.744 13.3506 6.072C12.7906 5.432 12.2786 4.984 11.8146 4.728C11.3666 4.456 10.9026 4.32 10.4226 4.32C10.0706 4.32 9.77463 4.44 9.53463 4.68C9.29463 4.904 9.17463 5.184 9.17463 5.52C9.17463 5.904 9.36663 6.264 9.75063 6.6C10.1346 6.92 10.7346 7.328 11.5506 7.824C12.3826 8.32 13.0706 8.768 13.6146 9.168C14.1586 9.568 14.6226 10.064 15.0066 10.656C15.3906 11.248 15.5826 11.928 15.5826 12.696C15.5826 13.192 15.5026 13.688 15.3426 14.184C14.9586 15.464 14.2146 16.44 13.1106 17.112C12.0066 17.768 10.7186 18.096 9.24663 18.096C8.14263 18.096 7.21463 17.968 6.46263 17.712C5.71063 17.456 4.94263 17.024 4.15863 16.416L3.29463 17.136C2.89463 17.472 2.56663 17.704 2.31063 17.832C2.05463 17.944 1.76663 18 1.44663 18C1.07863 18 0.782625 17.912 0.558625 17.736C0.350625 17.56 0.246625 17.32 0.246625 17.016C0.246625 16.856 0.278625 16.688 0.342625 16.512L1.51863 12.936C1.64663 12.52 1.82263 12.224 2.04663 12.048C2.27063 11.872 2.55863 11.784 2.91063 11.784C3.27863 11.784 3.60663 11.912 3.89463 12.168C4.19863 12.424 4.59063 12.888 5.07063 13.56C5.58263 14.296 6.05463 14.808 6.48663 15.096C6.93463 15.384 7.46263 15.528 8.07063 15.528C8.50263 15.528 8.83063 15.464 9.05463 15.336C9.29463 15.192 9.46263 14.968 9.55863 14.664C9.59063 14.584 9.60663 14.464 9.60663 14.304C9.60663 13.92 9.42263 13.568 9.05463 13.248C8.68663 12.928 8.11863 12.544 7.35063 12.096C6.53463 11.6 5.87063 11.16 5.35863 10.776C4.84663 10.376 4.39863 9.88 4.01463 9.288C3.64663 8.696 3.46263 8 3.46263 7.2C3.46263 6.64 3.55063 6.088 3.72663 5.544C4.06263 4.44 4.75063 3.552 5.79063 2.88C6.83063 2.208 8.02263 1.872 9.36663 1.872ZM25.5055 5.304C27.3455 5.304 28.8175 5.648 29.9215 6.336C31.0255 7.008 31.5775 8.04 31.5775 9.432C31.5775 9.96 31.4815 10.56 31.2895 11.232L30.3055 14.544C30.2895 14.608 30.2815 14.688 30.2815 14.784C30.2815 15.04 30.3855 15.168 30.5935 15.168C30.7855 15.168 30.9455 15.088 31.0735 14.928C31.2175 14.752 31.3135 14.664 31.3615 14.664C31.4415 14.664 31.5055 14.72 31.5535 14.832C31.6175 14.944 31.6495 15.072 31.6495 15.216C31.6655 15.648 31.4975 16.088 31.1455 16.536C30.8095 16.984 30.3535 17.352 29.7775 17.64C29.2015 17.928 28.5695 18.072 27.8815 18.072C27.0495 18.072 26.3375 17.92 25.7455 17.616C25.1535 17.312 24.7455 16.864 24.5215 16.272C24.0415 16.848 23.4735 17.296 22.8175 17.616C22.1615 17.92 21.4575 18.072 20.7055 18.072C19.8575 18.072 19.1455 17.912 18.5695 17.592C17.9935 17.256 17.5615 16.832 17.2735 16.32C17.0015 15.792 16.8655 15.24 16.8655 14.664C16.8655 14.408 16.8895 14.16 16.9375 13.92C17.1935 12.816 17.7455 11.984 18.5935 11.424C19.4575 10.864 20.4815 10.584 21.6655 10.584C22.9935 10.584 24.2975 10.792 25.5775 11.208L26.1775 9.624C26.3855 8.952 26.4895 8.432 26.4895 8.064C26.4735 7.68 26.3455 7.392 26.1055 7.2C25.8655 7.008 25.4975 6.912 25.0015 6.912C25.0975 7.168 25.1455 7.432 25.1455 7.704C25.1455 8.296 24.9215 8.808 24.4735 9.24C24.0255 9.672 23.3855 9.888 22.5535 9.888C21.7695 9.888 21.1535 9.72 20.7055 9.384C20.2735 9.032 20.0575 8.6 20.0575 8.088C20.0575 7.288 20.5055 6.624 21.4015 6.096C22.2975 5.568 23.6655 5.304 25.5055 5.304ZM24.1615 12.576C23.7135 12.576 23.3455 12.752 23.0575 13.104C22.7855 13.44 22.6495 13.808 22.6495 14.208C22.6495 14.464 22.7055 14.672 22.8175 14.832C22.9455 14.992 23.1215 15.072 23.3455 15.072C23.5535 15.072 23.7775 14.992 24.0175 14.832C24.2735 14.656 24.4575 14.4 24.5695 14.064L25.0735 12.648C24.8015 12.6 24.4975 12.576 24.1615 12.576ZM47.4966 14.688C47.4646 14.752 47.4486 14.848 47.4486 14.976C47.4486 15.088 47.4726 15.176 47.5206 15.24C47.5846 15.304 47.6646 15.336 47.7606 15.336C47.9526 15.336 48.1126 15.256 48.2406 15.096C48.3846 14.92 48.4806 14.832 48.5286 14.832C48.6086 14.832 48.6726 14.888 48.7206 15C48.7686 15.096 48.7926 15.216 48.7926 15.36C48.8086 15.824 48.6566 16.28 48.3366 16.728C48.0166 17.16 47.5446 17.52 46.9206 17.808C46.3126 18.08 45.5766 18.216 44.7126 18.216C43.6566 18.216 42.8166 17.976 42.1926 17.496C41.5686 17 41.2486 16.344 41.2326 15.528C41.2326 14.936 41.3766 14.272 41.6646 13.536L42.9846 10.08C43.0646 9.872 43.1046 9.704 43.1046 9.576C43.1046 9.368 43.0326 9.208 42.8886 9.096C42.7606 8.968 42.6006 8.904 42.4086 8.904C42.0566 8.904 41.7206 9.072 41.4006 9.408C41.0806 9.728 40.8486 10.128 40.7046 10.608L39.2166 15.504C39.1526 15.68 39.1206 15.848 39.1206 16.008C39.1206 16.2 39.1606 16.36 39.2406 16.488C39.3206 16.6 39.4326 16.72 39.5766 16.848C39.6886 16.944 39.7686 17.032 39.8166 17.112C39.8646 17.192 39.8726 17.288 39.8406 17.4C39.7766 17.608 39.6246 17.76 39.3846 17.856C39.1446 17.952 38.7686 18 38.2566 18H32.7846C32.3686 18 32.0726 17.936 31.8966 17.808C31.7046 17.664 31.6326 17.48 31.6806 17.256C31.7446 17.064 31.9126 16.896 32.1846 16.752C32.4246 16.624 32.6246 16.472 32.7846 16.296C32.9446 16.12 33.0806 15.84 33.1926 15.456L35.3286 8.52C35.3606 8.44 35.3766 8.328 35.3766 8.184C35.3766 8.008 35.3366 7.872 35.2566 7.776C35.1926 7.68 35.0806 7.56 34.9206 7.416C34.7606 7.288 34.6486 7.176 34.5846 7.08C34.5206 6.984 34.5126 6.856 34.5606 6.696C34.6566 6.328 35.1606 6.008 36.0726 5.736C36.9846 5.448 37.9366 5.304 38.9286 5.304C39.7286 5.304 40.3606 5.528 40.8246 5.976C41.2886 6.408 41.4966 7.016 41.4486 7.8C42.1046 6.856 42.8006 6.208 43.5366 5.856C44.2726 5.488 45.0726 5.304 45.9366 5.304C46.9126 5.304 47.6966 5.6 48.2886 6.192C48.8966 6.784 49.2006 7.552 49.2006 8.496C49.2006 8.992 49.1206 9.48 48.9606 9.96L47.4966 14.688ZM60.5483 5.616C60.8523 5.616 61.0843 5.68 61.2443 5.808C61.4203 5.936 61.5083 6.112 61.5083 6.336C61.5083 6.4 61.4923 6.512 61.4603 6.672C61.2523 7.376 60.7723 7.728 60.0203 7.728H58.6283L56.8283 13.656C56.7483 13.896 56.7083 14.144 56.7083 14.4C56.7083 14.688 56.7883 14.888 56.9483 15C57.1083 15.112 57.3323 15.168 57.6203 15.168C57.8763 15.168 58.1963 15.136 58.5803 15.072C58.7723 15.024 58.9403 15 59.0843 15C59.1963 15 59.2763 15.04 59.3243 15.12C59.3883 15.184 59.4203 15.272 59.4203 15.384C59.4363 15.704 59.1963 16.096 58.7003 16.56C58.2203 17.008 57.5643 17.4 56.7323 17.736C55.9003 18.056 54.9803 18.216 53.9723 18.216C52.8843 18.216 52.0123 17.968 51.3563 17.472C50.7003 16.976 50.3723 16.296 50.3723 15.432C50.3723 15.032 50.4363 14.648 50.5643 14.28L52.1003 9.528C52.1803 9.256 52.2203 9.04 52.2203 8.88C52.2203 8.56 52.1403 8.288 51.9803 8.064C51.8363 7.84 51.6283 7.608 51.3563 7.368C51.1163 7.144 50.9483 6.96 50.8523 6.816C50.7563 6.656 50.7323 6.472 50.7803 6.264C50.8443 6.056 50.9803 5.896 51.1883 5.784C51.3963 5.672 51.7243 5.616 52.1723 5.616H53.5163L55.0283 4.104C55.5563 3.576 56.0363 3.208 56.4683 3C56.9163 2.792 57.4923 2.688 58.1963 2.688C59.2043 2.688 59.7083 3.072 59.7083 3.84C59.7083 4.08 59.6763 4.304 59.6123 4.512L59.2763 5.616H60.5483ZM66.4448 5.304C67.3728 5.304 68.0528 5.48 68.4848 5.832C68.9168 6.184 69.1328 6.664 69.1328 7.272C69.1328 7.64 69.0768 7.992 68.9648 8.328L66.7568 15.504C66.7088 15.696 66.6848 15.864 66.6848 16.008C66.6848 16.216 66.7248 16.384 66.8048 16.512C66.8848 16.624 66.9968 16.736 67.1408 16.848C67.2528 16.96 67.3328 17.056 67.3808 17.136C67.4288 17.2 67.4368 17.288 67.4048 17.4C67.3248 17.608 67.1648 17.76 66.9248 17.856C66.6848 17.952 66.3168 18 65.8208 18H60.3488C59.9328 18 59.6288 17.936 59.4368 17.808C59.2448 17.664 59.1808 17.48 59.2448 17.256C59.3088 17.064 59.4768 16.896 59.7488 16.752C59.9888 16.624 60.1888 16.472 60.3488 16.296C60.5088 16.12 60.6448 15.84 60.7568 15.456L62.8448 8.52C62.8928 8.376 62.9168 8.256 62.9168 8.16C62.9168 7.984 62.8768 7.848 62.7968 7.752C62.7168 7.64 62.5968 7.528 62.4368 7.416C62.2768 7.288 62.1648 7.176 62.1008 7.08C62.0368 6.984 62.0288 6.856 62.0768 6.696C62.1728 6.328 62.6768 6.008 63.5888 5.736C64.5008 5.448 65.4528 5.304 66.4448 5.304ZM68.0528 -1.43051e-06C68.6768 -1.43051e-06 69.1968 0.207999 69.6128 0.623999C70.0288 1.024 70.2368 1.52 70.2368 2.112C70.2368 2.528 70.1248 2.936 69.9008 3.336C69.6928 3.736 69.3888 4.064 68.9888 4.32C68.6048 4.56 68.1728 4.68 67.6928 4.68C67.0848 4.68 66.5728 4.48 66.1568 4.08C65.7568 3.664 65.5488 3.152 65.5328 2.544C65.5328 2.144 65.6368 1.752 65.8448 1.368C66.0528 0.967999 66.3488 0.639999 66.7328 0.383999C67.1168 0.127999 67.5568 -1.43051e-06 68.0528 -1.43051e-06ZM77.4899 5.304C79.3299 5.304 80.8019 5.648 81.9059 6.336C83.0099 7.008 83.5619 8.04 83.5619 9.432C83.5619 9.96 83.4659 10.56 83.2739 11.232L82.2899 14.544C82.2739 14.608 82.2659 14.688 82.2659 14.784C82.2659 15.04 82.3699 15.168 82.5779 15.168C82.7699 15.168 82.9299 15.088 83.0579 14.928C83.2019 14.752 83.2979 14.664 83.3459 14.664C83.4259 14.664 83.4899 14.72 83.5379 14.832C83.6019 14.944 83.6339 15.072 83.6339 15.216C83.6499 15.648 83.4819 16.088 83.1299 16.536C82.7939 16.984 82.3379 17.352 81.7619 17.64C81.1859 17.928 80.5539 18.072 79.8659 18.072C79.0339 18.072 78.3219 17.92 77.7299 17.616C77.1379 17.312 76.7299 16.864 76.5059 16.272C76.0259 16.848 75.4579 17.296 74.8019 17.616C74.1459 17.92 73.4419 18.072 72.6899 18.072C71.8419 18.072 71.1299 17.912 70.5539 17.592C69.9779 17.256 69.5459 16.832 69.2579 16.32C68.9859 15.792 68.8499 15.24 68.8499 14.664C68.8499 14.408 68.8739 14.16 68.9219 13.92C69.1779 12.816 69.7299 11.984 70.5779 11.424C71.4419 10.864 72.4659 10.584 73.6499 10.584C74.9779 10.584 76.2819 10.792 77.5619 11.208L78.1619 9.624C78.3699 8.952 78.4739 8.432 78.4739 8.064C78.4579 7.68 78.3299 7.392 78.0899 7.2C77.8499 7.008 77.4819 6.912 76.9859 6.912C77.0819 7.168 77.1299 7.432 77.1299 7.704C77.1299 8.296 76.9059 8.808 76.4579 9.24C76.0099 9.672 75.3699 9.888 74.5379 9.888C73.7539 9.888 73.1379 9.72 72.6899 9.384C72.2579 9.032 72.0419 8.6 72.0419 8.088C72.0419 7.288 72.4899 6.624 73.3859 6.096C74.2819 5.568 75.6499 5.304 77.4899 5.304ZM76.1459 12.576C75.6979 12.576 75.3299 12.752 75.0419 13.104C74.7699 13.44 74.6339 13.808 74.6339 14.208C74.6339 14.464 74.6899 14.672 74.8019 14.832C74.9299 14.992 75.1059 15.072 75.3299 15.072C75.5379 15.072 75.7619 14.992 76.0019 14.832C76.2579 14.656 76.4419 14.4 76.5539 14.064L77.0579 12.648C76.7859 12.6 76.4819 12.576 76.1459 12.576ZM99.169 1.392C99.681 1.392 100.177 1.504 100.657 1.728C101.153 1.936 101.553 2.232 101.857 2.616C102.177 2.984 102.337 3.384 102.337 3.816C102.337 4.76 101.697 5.232 100.417 5.232C100.049 5.232 99.761 5.208 99.553 5.16C99.361 5.096 99.129 5 98.857 4.872C98.809 4.984 98.785 5.144 98.785 5.352C98.785 5.608 98.825 5.912 98.905 6.264C99.001 6.616 99.113 6.944 99.241 7.248C99.577 7.744 99.745 8.336 99.745 9.024C99.745 9.328 99.705 9.696 99.625 10.128C99.433 10.96 99.009 11.72 98.353 12.408C97.713 13.096 96.881 13.64 95.857 14.04C94.849 14.424 93.737 14.616 92.521 14.616C91.593 14.616 90.721 14.552 89.905 14.424C89.665 14.632 89.545 14.888 89.545 15.192C89.545 15.4 89.641 15.576 89.833 15.72C90.025 15.848 90.345 15.912 90.793 15.912H94.393C95.625 15.912 96.585 16.128 97.273 16.56C97.961 16.976 98.305 17.576 98.305 18.36C98.305 18.648 98.257 18.944 98.161 19.248C97.969 19.872 97.529 20.448 96.841 20.976C96.169 21.52 95.217 21.96 93.985 22.296C92.753 22.632 91.257 22.8 89.497 22.8C87.929 22.8 86.601 22.664 85.513 22.392C84.425 22.12 83.617 21.744 83.089 21.264C82.545 20.8 82.273 20.28 82.273 19.704C82.273 19.576 82.305 19.384 82.369 19.128C82.513 18.664 82.841 18.288 83.353 18C83.849 17.696 84.673 17.496 85.825 17.4C85.441 17.032 85.249 16.592 85.249 16.08C85.249 15.904 85.273 15.72 85.321 15.528C85.577 14.696 86.329 14.08 87.577 13.68C86.377 13.024 85.777 12.064 85.777 10.8C85.777 10.448 85.825 10.08 85.921 9.696C86.113 8.864 86.537 8.112 87.193 7.44C87.849 6.752 88.689 6.208 89.713 5.808C90.737 5.408 91.857 5.208 93.073 5.208C94.977 5.208 96.473 5.456 97.561 5.952C97.321 5.584 97.129 5.192 96.985 4.776C96.857 4.344 96.793 3.952 96.793 3.6C96.793 2.992 96.985 2.472 97.369 2.04C97.769 1.608 98.369 1.392 99.169 1.392ZM93.961 9.912C94.217 9.096 94.345 8.472 94.345 8.04C94.345 7.496 94.113 7.224 93.649 7.224C93.249 7.224 92.897 7.424 92.593 7.824C92.305 8.208 92.009 8.904 91.705 9.912C91.449 10.744 91.321 11.376 91.321 11.808C91.321 12.336 91.545 12.6 91.993 12.6C92.393 12.6 92.745 12.4 93.049 12C93.353 11.6 93.657 10.904 93.961 9.912ZM89.185 18.336C88.737 18.336 88.329 18.312 87.961 18.264C87.769 18.504 87.673 18.824 87.673 19.224C87.689 19.624 87.849 19.912 88.153 20.088C88.473 20.264 88.961 20.352 89.617 20.352C90.417 20.352 91.065 20.232 91.561 19.992C92.073 19.752 92.329 19.408 92.329 18.96C92.329 18.768 92.257 18.616 92.113 18.504C91.969 18.392 91.761 18.336 91.489 18.336H89.185ZM109.147 5.304C111.323 5.304 112.923 5.744 113.947 6.624C114.987 7.504 115.507 8.656 115.507 10.08C115.507 10.56 115.443 11.096 115.315 11.688C115.011 13 114.443 14.152 113.611 15.144C112.779 16.12 111.755 16.88 110.539 17.424C109.339 17.952 108.035 18.216 106.627 18.216C104.403 18.216 102.755 17.776 101.683 16.896C100.627 16 100.099 14.816 100.099 13.344C100.099 12.848 100.163 12.296 100.291 11.688C100.595 10.44 101.171 9.336 102.019 8.376C102.883 7.4 103.931 6.648 105.163 6.12C106.411 5.576 107.739 5.304 109.147 5.304ZM109.075 7.44C108.739 7.44 108.379 7.744 107.995 8.352C107.627 8.944 107.187 10.072 106.675 11.736C106.163 13.4 105.907 14.568 105.907 15.24C105.907 15.592 105.963 15.832 106.075 15.96C106.187 16.072 106.339 16.128 106.531 16.128C106.867 16.16 107.211 15.872 107.563 15.264C107.931 14.656 108.387 13.472 108.931 11.712C109.427 10.16 109.675 9.032 109.675 8.328C109.675 7.992 109.619 7.76 109.507 7.632C109.411 7.504 109.267 7.44 109.075 7.44Z" fill="#262626"/>
</svg>
