<svg width="232" height="47" viewBox="0 0 232 47" fill="none" xmlns="http://www.w3.org/2000/svg">
<path d="M18.7333 4.244C20.5253 4.244 22.1733 4.468 23.6773 4.916C25.2133 5.332 26.7653 6.004 28.3333 6.932L29.4373 6.02C30.2053 5.412 30.8293 4.996 31.3093 4.772C31.8213 4.548 32.3973 4.436 33.0373 4.436C33.8053 4.436 34.4133 4.612 34.8613 4.964C35.3093 5.284 35.5333 5.764 35.5333 6.404C35.5333 6.66 35.4853 6.932 35.3893 7.22L33.3733 13.844C33.1493 14.612 32.8613 15.156 32.5093 15.476C32.1893 15.796 31.6933 15.956 31.0213 15.956C30.3173 15.956 29.6933 15.748 29.1493 15.332C28.6373 14.884 27.8213 13.988 26.7013 12.644C25.5813 11.364 24.5573 10.468 23.6293 9.956C22.7333 9.412 21.8053 9.14 20.8453 9.14C20.1413 9.14 19.5493 9.38 19.0693 9.86C18.5893 10.308 18.3493 10.868 18.3493 11.54C18.3493 12.308 18.7333 13.028 19.5013 13.7C20.2693 14.34 21.4693 15.156 23.1013 16.148C24.7653 17.14 26.1413 18.036 27.2292 18.836C28.3173 19.636 29.2453 20.628 30.0133 21.812C30.7813 22.996 31.1653 24.356 31.1653 25.892C31.1653 26.884 31.0053 27.876 30.6853 28.868C29.9173 31.428 28.4293 33.38 26.2213 34.724C24.0133 36.036 21.4373 36.692 18.4933 36.692C16.2853 36.692 14.4293 36.436 12.9253 35.924C11.4213 35.412 9.88525 34.548 8.31725 33.332L6.58925 34.772C5.78925 35.444 5.13325 35.908 4.62125 36.164C4.10925 36.388 3.53325 36.5 2.89325 36.5C2.15725 36.5 1.56525 36.324 1.11725 35.972C0.70125 35.62 0.49325 35.14 0.49325 34.532C0.49325 34.212 0.55725 33.876 0.68525 33.524L3.03725 26.372C3.29325 25.54 3.64525 24.948 4.09325 24.596C4.54125 24.244 5.11725 24.068 5.82125 24.068C6.55725 24.068 7.21325 24.324 7.78925 24.836C8.39725 25.348 9.18125 26.276 10.1413 27.62C11.1653 29.092 12.1093 30.116 12.9733 30.692C13.8693 31.268 14.9253 31.556 16.1413 31.556C17.0053 31.556 17.6613 31.428 18.1093 31.172C18.5893 30.884 18.9253 30.436 19.1173 29.828C19.1813 29.668 19.2133 29.428 19.2133 29.108C19.2133 28.34 18.8453 27.636 18.1093 26.996C17.3733 26.356 16.2373 25.588 14.7013 24.692C13.0693 23.7 11.7413 22.82 10.7173 22.052C9.69325 21.252 8.79725 20.26 8.02925 19.076C7.29325 17.892 6.92525 16.5 6.92525 14.9C6.92525 13.78 7.10125 12.676 7.45325 11.588C8.12525 9.38 9.50125 7.604 11.5813 6.26C13.6613 4.916 16.0453 4.244 18.7333 4.244ZM51.011 11.108C54.691 11.108 57.635 11.796 59.843 13.172C62.051 14.516 63.155 16.58 63.155 19.364C63.155 20.42 62.963 21.62 62.579 22.964L60.611 29.588C60.579 29.716 60.563 29.876 60.563 30.068C60.563 30.58 60.771 30.836 61.187 30.836C61.571 30.836 61.891 30.676 62.147 30.356C62.435 30.004 62.627 29.828 62.723 29.828C62.883 29.828 63.011 29.94 63.107 30.164C63.235 30.388 63.299 30.644 63.299 30.932C63.331 31.796 62.995 32.676 62.291 33.572C61.619 34.468 60.707 35.204 59.555 35.78C58.403 36.356 57.139 36.644 55.763 36.644C54.099 36.644 52.675 36.34 51.491 35.732C50.307 35.124 49.491 34.228 49.043 33.044C48.083 34.196 46.947 35.092 45.635 35.732C44.323 36.34 42.915 36.644 41.411 36.644C39.715 36.644 38.291 36.324 37.139 35.684C35.987 35.012 35.123 34.164 34.547 33.14C34.003 32.084 33.731 30.98 33.731 29.828C33.731 29.316 33.779 28.82 33.875 28.34C34.387 26.132 35.491 24.468 37.187 23.348C38.915 22.228 40.963 21.668 43.331 21.668C45.987 21.668 48.595 22.084 51.155 22.916L52.355 19.748C52.771 18.404 52.979 17.364 52.979 16.628C52.947 15.86 52.691 15.284 52.211 14.9C51.731 14.516 50.995 14.324 50.003 14.324C50.195 14.836 50.291 15.364 50.291 15.908C50.291 17.092 49.843 18.116 48.947 18.98C48.051 19.844 46.771 20.276 45.107 20.276C43.539 20.276 42.307 19.94 41.411 19.268C40.547 18.564 40.115 17.7 40.115 16.676C40.115 15.076 41.011 13.748 42.803 12.692C44.595 11.636 47.331 11.108 51.011 11.108ZM48.323 25.652C47.427 25.652 46.691 26.004 46.115 26.708C45.571 27.38 45.299 28.116 45.299 28.916C45.299 29.428 45.411 29.844 45.635 30.164C45.891 30.484 46.243 30.644 46.691 30.644C47.107 30.644 47.555 30.484 48.035 30.164C48.547 29.812 48.915 29.3 49.139 28.628L50.147 25.796C49.603 25.7 48.995 25.652 48.323 25.652ZM94.9933 29.876C94.9293 30.004 94.8973 30.196 94.8973 30.452C94.8973 30.676 94.9453 30.852 95.0413 30.98C95.1693 31.108 95.3293 31.172 95.5213 31.172C95.9053 31.172 96.2253 31.012 96.4813 30.692C96.7693 30.34 96.9613 30.164 97.0573 30.164C97.2173 30.164 97.3453 30.276 97.4413 30.5C97.5373 30.692 97.5853 30.932 97.5853 31.22C97.6173 32.148 97.3133 33.06 96.6733 33.956C96.0333 34.82 95.0893 35.54 93.8413 36.116C92.6253 36.66 91.1533 36.932 89.4253 36.932C87.3133 36.932 85.6333 36.452 84.3853 35.492C83.1373 34.5 82.4973 33.188 82.4653 31.556C82.4653 30.372 82.7533 29.044 83.3293 27.572L85.9693 20.66C86.1293 20.244 86.2093 19.908 86.2093 19.652C86.2093 19.236 86.0653 18.916 85.7773 18.692C85.5213 18.436 85.2013 18.308 84.8173 18.308C84.1133 18.308 83.4413 18.644 82.8013 19.316C82.1613 19.956 81.6973 20.756 81.4093 21.716L78.4333 31.508C78.3053 31.86 78.2413 32.196 78.2413 32.516C78.2413 32.9 78.3213 33.22 78.4813 33.476C78.6413 33.7 78.8653 33.94 79.1533 34.196C79.3773 34.388 79.5373 34.564 79.6333 34.724C79.7293 34.884 79.7453 35.076 79.6813 35.3C79.5533 35.716 79.2493 36.02 78.7693 36.212C78.2893 36.404 77.5373 36.5 76.5133 36.5H65.5693C64.7372 36.5 64.1452 36.372 63.7932 36.116C63.4092 35.828 63.2652 35.46 63.3612 35.012C63.4892 34.628 63.8252 34.292 64.3692 34.004C64.8492 33.748 65.2492 33.444 65.5693 33.092C65.8893 32.74 66.1613 32.18 66.3853 31.412L70.6573 17.54C70.7213 17.38 70.7533 17.156 70.7533 16.868C70.7533 16.516 70.6733 16.244 70.5133 16.052C70.3853 15.86 70.1613 15.62 69.8413 15.332C69.5213 15.076 69.2973 14.852 69.1693 14.66C69.0413 14.468 69.0253 14.212 69.1213 13.892C69.3133 13.156 70.3213 12.516 72.1453 11.972C73.9693 11.396 75.8733 11.108 77.8573 11.108C79.4573 11.108 80.7213 11.556 81.6493 12.452C82.5773 13.316 82.9933 14.532 82.8973 16.1C84.2093 14.212 85.6013 12.916 87.0733 12.212C88.5453 11.476 90.1453 11.108 91.8733 11.108C93.8253 11.108 95.3933 11.7 96.5773 12.884C97.7933 14.068 98.4013 15.604 98.4013 17.492C98.4013 18.484 98.2413 19.46 97.9213 20.42L94.9933 29.876ZM121.097 11.732C121.705 11.732 122.169 11.86 122.489 12.116C122.841 12.372 123.017 12.724 123.017 13.172C123.017 13.3 122.985 13.524 122.921 13.844C122.505 15.252 121.545 15.956 120.041 15.956H117.257L113.657 27.812C113.497 28.292 113.417 28.788 113.417 29.3C113.417 29.876 113.577 30.276 113.897 30.5C114.217 30.724 114.665 30.836 115.241 30.836C115.753 30.836 116.393 30.772 117.161 30.644C117.545 30.548 117.881 30.5 118.169 30.5C118.393 30.5 118.553 30.58 118.649 30.74C118.777 30.868 118.841 31.044 118.841 31.268C118.873 31.908 118.393 32.692 117.401 33.62C116.441 34.516 115.129 35.3 113.465 35.972C111.801 36.612 109.961 36.932 107.945 36.932C105.769 36.932 104.025 36.436 102.713 35.444C101.401 34.452 100.745 33.092 100.745 31.364C100.745 30.564 100.873 29.796 101.129 29.06L104.201 19.556C104.361 19.012 104.441 18.58 104.441 18.26C104.441 17.62 104.281 17.076 103.961 16.628C103.673 16.18 103.257 15.716 102.713 15.236C102.233 14.788 101.897 14.42 101.705 14.132C101.513 13.812 101.465 13.444 101.561 13.028C101.689 12.612 101.961 12.292 102.377 12.068C102.793 11.844 103.449 11.732 104.345 11.732H107.033L110.057 8.708C111.113 7.652 112.073 6.916 112.937 6.5C113.833 6.084 114.985 5.876 116.393 5.876C118.409 5.876 119.417 6.644 119.417 8.18C119.417 8.66 119.353 9.108 119.225 9.524L118.553 11.732H121.097ZM132.89 11.108C134.746 11.108 136.106 11.46 136.97 12.164C137.834 12.868 138.266 13.828 138.266 15.044C138.266 15.78 138.154 16.484 137.93 17.156L133.514 31.508C133.418 31.892 133.37 32.228 133.37 32.516C133.37 32.932 133.45 33.268 133.61 33.524C133.77 33.748 133.994 33.972 134.282 34.196C134.506 34.42 134.666 34.612 134.762 34.772C134.858 34.9 134.874 35.076 134.81 35.3C134.65 35.716 134.33 36.02 133.85 36.212C133.37 36.404 132.634 36.5 131.642 36.5H120.698C119.866 36.5 119.258 36.372 118.874 36.116C118.49 35.828 118.362 35.46 118.49 35.012C118.618 34.628 118.954 34.292 119.498 34.004C119.978 33.748 120.378 33.444 120.698 33.092C121.018 32.74 121.29 32.18 121.514 31.412L125.69 17.54C125.786 17.252 125.834 17.012 125.834 16.82C125.834 16.468 125.754 16.196 125.594 16.004C125.434 15.78 125.194 15.556 124.874 15.332C124.554 15.076 124.33 14.852 124.202 14.66C124.074 14.468 124.058 14.212 124.154 13.892C124.346 13.156 125.354 12.516 127.178 11.972C129.002 11.396 130.906 11.108 132.89 11.108ZM136.106 0.499997C137.354 0.499997 138.394 0.915998 139.226 1.748C140.058 2.548 140.474 3.54 140.474 4.724C140.474 5.556 140.25 6.372 139.802 7.172C139.386 7.972 138.778 8.628 137.978 9.14C137.21 9.62 136.346 9.86 135.386 9.86C134.17 9.86 133.146 9.46 132.314 8.66C131.514 7.828 131.098 6.804 131.066 5.588C131.066 4.788 131.274 4.004 131.69 3.236C132.106 2.436 132.698 1.78 133.466 1.268C134.234 0.755998 135.114 0.499997 136.106 0.499997ZM154.98 11.108C158.66 11.108 161.604 11.796 163.812 13.172C166.02 14.516 167.124 16.58 167.124 19.364C167.124 20.42 166.932 21.62 166.548 22.964L164.58 29.588C164.548 29.716 164.532 29.876 164.532 30.068C164.532 30.58 164.74 30.836 165.156 30.836C165.54 30.836 165.86 30.676 166.116 30.356C166.404 30.004 166.596 29.828 166.692 29.828C166.852 29.828 166.98 29.94 167.076 30.164C167.204 30.388 167.268 30.644 167.268 30.932C167.3 31.796 166.964 32.676 166.26 33.572C165.588 34.468 164.676 35.204 163.524 35.78C162.372 36.356 161.108 36.644 159.732 36.644C158.068 36.644 156.644 36.34 155.46 35.732C154.276 35.124 153.46 34.228 153.012 33.044C152.052 34.196 150.916 35.092 149.604 35.732C148.292 36.34 146.884 36.644 145.38 36.644C143.684 36.644 142.26 36.324 141.108 35.684C139.956 35.012 139.092 34.164 138.516 33.14C137.972 32.084 137.7 30.98 137.7 29.828C137.7 29.316 137.748 28.82 137.844 28.34C138.356 26.132 139.46 24.468 141.156 23.348C142.884 22.228 144.932 21.668 147.3 21.668C149.956 21.668 152.564 22.084 155.124 22.916L156.324 19.748C156.74 18.404 156.948 17.364 156.948 16.628C156.916 15.86 156.66 15.284 156.18 14.9C155.7 14.516 154.964 14.324 153.972 14.324C154.164 14.836 154.26 15.364 154.26 15.908C154.26 17.092 153.812 18.116 152.916 18.98C152.02 19.844 150.74 20.276 149.076 20.276C147.508 20.276 146.276 19.94 145.38 19.268C144.516 18.564 144.084 17.7 144.084 16.676C144.084 15.076 144.98 13.748 146.772 12.692C148.564 11.636 151.3 11.108 154.98 11.108ZM152.292 25.652C151.396 25.652 150.66 26.004 150.084 26.708C149.54 27.38 149.268 28.116 149.268 28.916C149.268 29.428 149.38 29.844 149.604 30.164C149.86 30.484 150.212 30.644 150.66 30.644C151.076 30.644 151.524 30.484 152.004 30.164C152.516 29.812 152.884 29.3 153.108 28.628L154.116 25.796C153.572 25.7 152.964 25.652 152.292 25.652ZM198.338 3.284C199.362 3.284 200.354 3.508 201.314 3.956C202.306 4.372 203.106 4.964 203.714 5.732C204.354 6.468 204.674 7.268 204.674 8.132C204.674 10.02 203.394 10.964 200.834 10.964C200.098 10.964 199.522 10.916 199.106 10.82C198.722 10.692 198.258 10.5 197.714 10.244C197.618 10.468 197.57 10.788 197.57 11.204C197.57 11.716 197.65 12.324 197.81 13.028C198.002 13.732 198.226 14.388 198.482 14.996C199.154 15.988 199.49 17.172 199.49 18.548C199.49 19.156 199.41 19.892 199.25 20.756C198.866 22.42 198.018 23.94 196.706 25.316C195.426 26.692 193.762 27.78 191.714 28.58C189.698 29.348 187.474 29.732 185.042 29.732C183.186 29.732 181.442 29.604 179.81 29.348C179.33 29.764 179.09 30.276 179.09 30.884C179.09 31.3 179.282 31.652 179.666 31.94C180.05 32.196 180.69 32.324 181.586 32.324H188.786C191.25 32.324 193.17 32.756 194.546 33.62C195.922 34.452 196.61 35.652 196.61 37.22C196.61 37.796 196.514 38.388 196.322 38.996C195.938 40.244 195.058 41.396 193.682 42.452C192.338 43.54 190.434 44.42 187.97 45.092C185.506 45.764 182.514 46.1 178.994 46.1C175.858 46.1 173.202 45.828 171.026 45.284C168.85 44.74 167.234 43.988 166.178 43.028C165.09 42.1 164.546 41.06 164.546 39.908C164.546 39.652 164.61 39.268 164.738 38.756C165.026 37.828 165.682 37.076 166.706 36.5C167.698 35.892 169.346 35.492 171.65 35.3C170.882 34.564 170.498 33.684 170.498 32.66C170.498 32.308 170.546 31.94 170.642 31.556C171.154 29.892 172.658 28.66 175.154 27.86C172.754 26.548 171.554 24.628 171.554 22.1C171.554 21.396 171.65 20.66 171.842 19.892C172.226 18.228 173.074 16.724 174.386 15.38C175.698 14.004 177.378 12.916 179.426 12.116C181.474 11.316 183.714 10.916 186.146 10.916C189.954 10.916 192.946 11.412 195.122 12.404C194.642 11.668 194.258 10.884 193.97 10.052C193.714 9.188 193.586 8.404 193.586 7.7C193.586 6.484 193.97 5.444 194.738 4.58C195.538 3.716 196.738 3.284 198.338 3.284ZM187.922 20.324C188.434 18.692 188.69 17.444 188.69 16.58C188.69 15.492 188.226 14.948 187.298 14.948C186.498 14.948 185.794 15.348 185.186 16.148C184.61 16.916 184.018 18.308 183.41 20.324C182.898 21.988 182.642 23.252 182.642 24.116C182.642 25.172 183.09 25.7 183.986 25.7C184.786 25.7 185.49 25.3 186.098 24.5C186.706 23.7 187.314 22.308 187.922 20.324ZM178.37 37.172C177.474 37.172 176.658 37.124 175.922 37.028C175.538 37.508 175.346 38.148 175.346 38.948C175.378 39.748 175.698 40.324 176.306 40.676C176.946 41.028 177.922 41.204 179.234 41.204C180.834 41.204 182.13 40.964 183.122 40.484C184.146 40.004 184.658 39.316 184.658 38.42C184.658 38.036 184.514 37.732 184.226 37.508C183.938 37.284 183.522 37.172 182.978 37.172H178.37ZM218.295 11.108C222.647 11.108 225.847 11.988 227.895 13.748C229.975 15.508 231.015 17.812 231.015 20.66C231.015 21.62 230.887 22.692 230.631 23.876C230.023 26.5 228.887 28.804 227.223 30.788C225.559 32.74 223.511 34.26 221.079 35.348C218.679 36.404 216.071 36.932 213.255 36.932C208.807 36.932 205.511 36.052 203.367 34.292C201.255 32.5 200.199 30.132 200.199 27.188C200.199 26.196 200.327 25.092 200.583 23.876C201.191 21.38 202.343 19.172 204.039 17.252C205.767 15.3 207.863 13.796 210.327 12.74C212.823 11.652 215.479 11.108 218.295 11.108ZM218.151 15.38C217.479 15.38 216.759 15.988 215.991 17.204C215.255 18.388 214.375 20.644 213.351 23.972C212.327 27.3 211.815 29.636 211.815 30.98C211.815 31.684 211.927 32.164 212.151 32.42C212.375 32.644 212.679 32.756 213.063 32.756C213.735 32.82 214.423 32.244 215.127 31.028C215.863 29.812 216.775 27.444 217.863 23.924C218.855 20.82 219.351 18.564 219.351 17.156C219.351 16.484 219.239 16.02 219.015 15.764C218.823 15.508 218.535 15.38 218.151 15.38Z" fill="#737373"/>
</svg>
