<svg width="336" height="15" viewBox="0 0 336 15" fill="none" xmlns="http://www.w3.org/2000/svg">
<g clip-path="url(#clip0_1028_4121)">
<rect x="-17" y="6" width="132" height="3" fill="url(#paint0_linear_1028_4121)"/>
<path d="M130.776 12.12C130.176 12.12 129.616 12.008 129.096 11.784C128.576 11.56 128.12 11.252 127.728 10.86C127.336 10.46 127.028 10 126.804 9.48C126.588 8.952 126.48 8.388 126.48 7.788C126.48 7.188 126.588 6.628 126.804 6.108C127.028 5.588 127.332 5.132 127.716 4.74C128.108 4.34 128.56 4.032 129.072 3.816C129.592 3.592 130.152 3.48 130.752 3.48C131.352 3.48 131.908 3.592 132.42 3.816C132.94 4.032 133.396 4.34 133.788 4.74C134.18 5.132 134.484 5.592 134.7 6.12C134.924 6.64 135.036 7.2 135.036 7.8C135.036 8.4 134.924 8.964 134.7 9.492C134.484 10.012 134.18 10.468 133.788 10.86C133.404 11.252 132.952 11.56 132.432 11.784C131.92 12.008 131.368 12.12 130.776 12.12ZM130.752 10.8C131.32 10.8 131.816 10.672 132.24 10.416C132.672 10.16 133.008 9.808 133.248 9.36C133.496 8.904 133.62 8.38 133.62 7.788C133.62 7.348 133.548 6.948 133.404 6.588C133.268 6.22 133.072 5.904 132.816 5.64C132.56 5.368 132.256 5.16 131.904 5.016C131.56 4.872 131.176 4.8 130.752 4.8C130.192 4.8 129.696 4.928 129.264 5.184C128.84 5.432 128.504 5.78 128.256 6.228C128.016 6.676 127.896 7.196 127.896 7.788C127.896 8.228 127.964 8.636 128.1 9.012C128.244 9.38 128.44 9.696 128.688 9.96C128.944 10.224 129.248 10.432 129.6 10.584C129.952 10.728 130.336 10.8 130.752 10.8ZM136.259 12V6.24H137.579V12H136.259ZM137.579 8.796L137.123 8.568C137.123 7.84 137.283 7.252 137.603 6.804C137.931 6.348 138.423 6.12 139.079 6.12C139.367 6.12 139.627 6.172 139.859 6.276C140.091 6.38 140.307 6.548 140.507 6.78L139.643 7.668C139.539 7.556 139.423 7.476 139.295 7.428C139.167 7.38 139.019 7.356 138.851 7.356C138.483 7.356 138.179 7.472 137.939 7.704C137.699 7.936 137.579 8.3 137.579 8.796ZM146.279 12.12C145.615 12.12 145.051 12 144.587 11.76C144.123 11.52 143.707 11.168 143.339 10.704L144.275 9.768C144.507 10.104 144.783 10.368 145.103 10.56C145.423 10.744 145.831 10.836 146.327 10.836C146.791 10.836 147.159 10.74 147.431 10.548C147.711 10.356 147.851 10.092 147.851 9.756C147.851 9.476 147.779 9.248 147.635 9.072C147.491 8.896 147.299 8.752 147.059 8.64C146.827 8.52 146.567 8.416 146.279 8.328C145.999 8.232 145.715 8.128 145.427 8.016C145.147 7.896 144.887 7.748 144.647 7.572C144.415 7.396 144.227 7.168 144.083 6.888C143.939 6.608 143.867 6.252 143.867 5.82C143.867 5.324 143.987 4.904 144.227 4.56C144.475 4.208 144.807 3.94 145.223 3.756C145.639 3.572 146.103 3.48 146.615 3.48C147.167 3.48 147.659 3.588 148.091 3.804C148.531 4.02 148.887 4.296 149.159 4.632L148.223 5.568C147.983 5.296 147.731 5.096 147.467 4.968C147.211 4.832 146.915 4.764 146.579 4.764C146.163 4.764 145.835 4.848 145.595 5.016C145.363 5.184 145.247 5.42 145.247 5.724C145.247 5.98 145.319 6.188 145.463 6.348C145.607 6.5 145.795 6.632 146.027 6.744C146.267 6.848 146.527 6.948 146.807 7.044C147.095 7.14 147.379 7.248 147.659 7.368C147.947 7.488 148.207 7.644 148.439 7.836C148.679 8.02 148.871 8.26 149.015 8.556C149.159 8.852 149.231 9.224 149.231 9.672C149.231 10.424 148.963 11.02 148.427 11.46C147.899 11.9 147.183 12.12 146.279 12.12ZM150.439 12V6.24H151.759V12H150.439ZM151.099 5.184C150.875 5.184 150.687 5.108 150.535 4.956C150.391 4.804 150.319 4.616 150.319 4.392C150.319 4.168 150.391 3.98 150.535 3.828C150.687 3.676 150.875 3.6 151.099 3.6C151.331 3.6 151.519 3.676 151.663 3.828C151.807 3.98 151.879 4.168 151.879 4.392C151.879 4.616 151.807 4.804 151.663 4.956C151.519 5.108 151.331 5.184 151.099 5.184ZM155.64 14.52C155.032 14.52 154.5 14.408 154.044 14.184C153.588 13.968 153.22 13.66 152.94 13.26L153.804 12.396C154.036 12.684 154.3 12.9 154.596 13.044C154.892 13.188 155.248 13.26 155.664 13.26C156.184 13.26 156.596 13.124 156.9 12.852C157.204 12.588 157.356 12.224 157.356 11.76V10.344L157.584 9.072L157.356 7.788V6.24H158.676V11.76C158.676 12.312 158.548 12.792 158.292 13.2C158.036 13.616 157.68 13.94 157.224 14.172C156.768 14.404 156.24 14.52 155.64 14.52ZM155.58 11.88C155.068 11.88 154.604 11.756 154.188 11.508C153.78 11.252 153.456 10.904 153.216 10.464C152.984 10.024 152.868 9.532 152.868 8.988C152.868 8.444 152.984 7.956 153.216 7.524C153.456 7.092 153.78 6.752 154.188 6.504C154.604 6.248 155.068 6.12 155.58 6.12C156.036 6.12 156.436 6.212 156.78 6.396C157.124 6.58 157.392 6.836 157.584 7.164C157.776 7.484 157.872 7.86 157.872 8.292V9.708C157.872 10.132 157.772 10.508 157.572 10.836C157.38 11.164 157.112 11.42 156.768 11.604C156.424 11.788 156.028 11.88 155.58 11.88ZM155.844 10.632C156.164 10.632 156.444 10.564 156.684 10.428C156.924 10.292 157.108 10.104 157.236 9.864C157.372 9.616 157.44 9.328 157.44 9C157.44 8.672 157.372 8.388 157.236 8.148C157.108 7.9 156.924 7.708 156.684 7.572C156.444 7.436 156.164 7.368 155.844 7.368C155.524 7.368 155.24 7.436 154.992 7.572C154.752 7.708 154.564 7.9 154.428 8.148C154.292 8.388 154.224 8.672 154.224 9C154.224 9.32 154.292 9.604 154.428 9.852C154.564 10.1 154.752 10.292 154.992 10.428C155.24 10.564 155.524 10.632 155.844 10.632ZM164.09 12V8.676C164.09 8.292 163.966 7.976 163.718 7.728C163.478 7.48 163.166 7.356 162.782 7.356C162.526 7.356 162.298 7.412 162.098 7.524C161.898 7.636 161.742 7.792 161.63 7.992C161.518 8.192 161.462 8.42 161.462 8.676L160.946 8.388C160.946 7.948 161.042 7.56 161.234 7.224C161.426 6.88 161.69 6.612 162.026 6.42C162.37 6.22 162.754 6.12 163.178 6.12C163.61 6.12 163.994 6.232 164.33 6.456C164.666 6.672 164.93 6.956 165.122 7.308C165.314 7.652 165.41 8.012 165.41 8.388V12H164.09ZM160.142 12V6.24H161.462V12H160.142ZM171.518 12.12C171.03 12.12 170.594 12.012 170.21 11.796C169.834 11.58 169.538 11.284 169.322 10.908C169.114 10.524 169.01 10.084 169.01 9.588V6.24H170.33V9.528C170.33 9.808 170.374 10.048 170.462 10.248C170.558 10.44 170.694 10.588 170.87 10.692C171.054 10.796 171.27 10.848 171.518 10.848C171.902 10.848 172.194 10.736 172.394 10.512C172.602 10.28 172.706 9.952 172.706 9.528V6.24H174.026V9.588C174.026 10.092 173.918 10.536 173.702 10.92C173.494 11.296 173.202 11.592 172.826 11.808C172.45 12.016 172.014 12.12 171.518 12.12ZM178.437 12.12C177.997 12.12 177.605 12.028 177.261 11.844C176.917 11.652 176.645 11.392 176.445 11.064C176.253 10.736 176.157 10.364 176.157 9.948V8.292C176.157 7.876 176.257 7.504 176.457 7.176C176.657 6.848 176.929 6.592 177.273 6.408C177.617 6.216 178.005 6.12 178.437 6.12C178.957 6.12 179.425 6.256 179.841 6.528C180.265 6.792 180.597 7.152 180.837 7.608C181.085 8.056 181.209 8.564 181.209 9.132C181.209 9.692 181.085 10.2 180.837 10.656C180.597 11.104 180.265 11.46 179.841 11.724C179.425 11.988 178.957 12.12 178.437 12.12ZM178.221 10.872C178.541 10.872 178.821 10.8 179.061 10.656C179.309 10.504 179.501 10.296 179.637 10.032C179.781 9.768 179.853 9.464 179.853 9.12C179.853 8.776 179.781 8.472 179.637 8.208C179.501 7.944 179.309 7.74 179.061 7.596C178.821 7.444 178.541 7.368 178.221 7.368C177.901 7.368 177.617 7.444 177.369 7.596C177.121 7.74 176.929 7.944 176.793 8.208C176.657 8.472 176.589 8.776 176.589 9.12C176.589 9.464 176.657 9.768 176.793 10.032C176.929 10.296 177.121 10.504 177.369 10.656C177.617 10.8 177.901 10.872 178.221 10.872ZM175.353 14.4V6.24H176.673V7.788L176.445 9.192L176.673 10.584V14.4H175.353ZM187.056 12L184.296 3.6H185.652L187.728 10.068H187.368L189.396 3.6H190.356L192.384 10.068H192.024L194.1 3.6H195.456L192.696 12H191.736L189.696 5.544H190.056L188.016 12H187.056ZM196.517 12V6.24H197.837V12H196.517ZM197.177 5.184C196.953 5.184 196.765 5.108 196.613 4.956C196.469 4.804 196.397 4.616 196.397 4.392C196.397 4.168 196.469 3.98 196.613 3.828C196.765 3.676 196.953 3.6 197.177 3.6C197.409 3.6 197.597 3.676 197.741 3.828C197.885 3.98 197.957 4.168 197.957 4.392C197.957 4.616 197.885 4.804 197.741 4.956C197.597 5.108 197.409 5.184 197.177 5.184ZM200.194 12V3.84H201.514V12H200.194ZM198.814 7.44V6.24H202.894V7.44H198.814ZM207.801 12V8.676C207.801 8.292 207.677 7.976 207.429 7.728C207.189 7.48 206.877 7.356 206.493 7.356C206.237 7.356 206.009 7.412 205.809 7.524C205.609 7.636 205.453 7.792 205.341 7.992C205.229 8.192 205.173 8.42 205.173 8.676L204.657 8.388C204.657 7.948 204.753 7.56 204.945 7.224C205.137 6.88 205.401 6.612 205.737 6.42C206.081 6.22 206.465 6.12 206.889 6.12C207.321 6.12 207.705 6.216 208.041 6.408C208.377 6.6 208.641 6.868 208.833 7.212C209.025 7.548 209.121 7.94 209.121 8.388V12H207.801ZM203.853 12V3.36H205.173V12H203.853Z" fill="#555252"/>
<rect x="353" y="9" width="132" height="3" transform="rotate(-180 353 9)" fill="url(#paint1_linear_1028_4121)"/>
</g>
<defs>
<linearGradient id="paint0_linear_1028_4121" x1="109.5" y1="6.99993" x2="13" y2="8.99988" gradientUnits="userSpaceOnUse">
<stop stop-color="#05C3B6"/>
<stop offset="1" stop-color="#C4C4C4" stop-opacity="0"/>
</linearGradient>
<linearGradient id="paint1_linear_1028_4121" x1="479.5" y1="9.99993" x2="383" y2="11.9999" gradientUnits="userSpaceOnUse">
<stop stop-color="#05C3B6"/>
<stop offset="1" stop-color="#C4C4C4" stop-opacity="0"/>
</linearGradient>
<clipPath id="clip0_1028_4121">
<rect width="336" height="15" fill="white"/>
</clipPath>
</defs>
</svg>
